<svg xmlns="http://www.w3.org/2000/svg" viewBox="0 0 94 122"><path fill="#fff" d="M8.1 89.9 47.6 110l38-20.1V11.3H8.1z"/><path fill="#f2f3f2" d="M86.4 11.6 7.3 91.3l41 20.3 38.1-19.5z"/><path fill="#dcdedc" d="M5.5 37.5v54.1l1.4.7 39.5 20.1 1.2.6 1.2-.6 38.1-20.1 1.4-.7V8.7H5.5v28.8zm2.6 52.6V11.3h77.6v78.8l-38.1 20.1L8.1 90.1z"/><path fill="#ff492c" d="M46.9 12.6c.4 0 .8 0 1.2.1L46.9 15c-1.8-.1-3.4 1.3-3.5 3.1-.1 1.8 1.3 3.4 3.1 3.5h.4c.8 0 1.6-.3 2.2-.8l1.3 2.2c-1 .7-2.2 1.1-3.5 1.1-3.2.1-5.9-2.3-6-5.5-.1-3.2 2.3-5.9 5.5-6h.5zm4.1 4.9 1.5 2.5-1.5 2.4-1.4-2.4h-2.9l1.5-2.5H51zm-2.4-.9c0-.4.1-.8.3-1.1.2-.3.6-.6.9-.8l.2-.1c.4-.2.5-.3.5-.5s-.3-.4-.5-.4c-.4 0-.7.2-.9.6l-.5-.5c.1-.2.3-.4.5-.6.3-.2.6-.2.9-.2.3 0 .7.1.9.3.2.2.4.5.4.8 0 .5-.3.9-.9 1.1l-.3.2c-.3.2-.5.3-.6.6h1.8v.7l-2.7-.1zm-1.7 12.5 9.5-5.4v-15H37.3v14.9l9.6 5.5z"/><path fill="#2690ce" d="M90.2 64.5H3.6l-3.2 7 3.2 7h86.6l3.1-7z"/><path fill="#252530" d="M28.53 60q-.12 0-.15-.12l-.36-1.18q-.03-.04-.06-.04H25q-.03 0-.06.04l-.34 1.18q-.04.12-.16.12h-1.52q-.08 0-.11-.04-.04-.04-.01-.13l2.59-8.11q.03-.12.15-.12h1.89q.12 0 .15.12l2.6 8.11q.01.03.01.06 0 .11-.13.11h-1.53Zm-3.15-2.72q-.02.07.04.07h2.12q.07 0 .04-.07l-1.08-3.57q-.01-.05-.03-.04-.03.01-.04.04l-1.05 3.57Zm9.38-5.54q0-.06.04-.1.04-.04.1-.04h1.41q.06 0 .1.04.04.04.04.1v8.12q0 .06-.04.1-.04.04-.1.04H34.9q-.06 0-.1-.04-.04-.04-.04-.1v-.4q0-.04-.02-.04-.03-.01-.05.02-.51.66-1.38.66-.84 0-1.45-.47-.6-.47-.87-1.29-.2-.62-.2-1.45 0-.85.21-1.49.28-.76.87-1.21.6-.45 1.47-.45t1.35.6q.02.03.05.02.02-.01.02-.05v-2.57Zm-.25 6.39q.24-.45.24-1.21 0-.81-.27-1.26-.27-.47-.8-.47-.56 0-.85.47-.3.46-.3 1.27 0 .72.25 1.2.3.51.89.51.54 0 .84-.51Zm5.94 1.97q-1.01 0-1.73-.53t-.98-1.44q-.17-.57-.17-1.23 0-.7.17-1.27.27-.89.99-1.39.72-.5 1.73-.5.98 0 1.68.49.7.5.98 1.39.2.6.2 1.26 0 .65-.17 1.21-.27.94-.98 1.47-.71.54-1.72.54Zm0-1.46q.39 0 .67-.24t.4-.66q.09-.38.09-.84 0-.5-.09-.85-.14-.41-.41-.63-.28-.23-.67-.23-.41 0-.68.23-.27.22-.39.63-.1.29-.1.85 0 .54.09.84.12.42.4.66.28.24.69.24Zm9.47-3.15q.21.61.21 1.44t-.23 1.5q-.27.77-.87 1.22-.59.45-1.47.45-.86 0-1.34-.6-.02-.04-.05-.03-.02.01-.02.05v2.57q0 .06-.04.1-.05.04-.11.04h-1.4q-.06 0-.1-.04-.04-.04-.04-.1v-8.11q0-.06.04-.11.04-.04.1-.04H46q.06 0 .11.04.04.05.04.11v.39q0 .04.02.04.03.01.05-.01.5-.66 1.39-.66.83 0 1.44.46.6.46.87 1.29Zm-1.84 2.69q.3-.47.3-1.28 0-.75-.25-1.2-.28-.51-.89-.51-.55 0-.83.51-.25.44-.25 1.22 0 .8.26 1.24.28.48.82.48.54 0 .84-.46Zm6.68-3.14q0 .06-.04.11-.04.04-.1.04h-1.15q-.06 0-.06.06v2.54q0 .4.16.59.16.19.52.19h.4q.06 0 .1.04.04.05.04.11v1.14q0 .13-.14.15-.51.03-.72.03-1 0-1.49-.33t-.5-1.25v-3.21q0-.06-.06-.06h-.69q-.06 0-.1-.04-.04-.05-.04-.11v-1.06q0-.06.04-.11.04-.04.1-.04h.69q.06 0 .06-.06v-1.43q0-.06.04-.1.04-.04.1-.04h1.34q.06 0 .11.04.04.04.04.1v1.43q0 .06.06.06h1.15q.06 0 .1.04.04.05.04.11v1.06Zm1.94-1.9q-.41 0-.68-.27-.27-.27-.27-.68 0-.42.26-.69.27-.26.69-.26.42 0 .68.26.26.27.26.69 0 .41-.27.68-.27.27-.67.27ZM55.98 60q-.06 0-.11-.04-.04-.04-.04-.1v-5.9q0-.06.04-.1.05-.04.11-.04h1.4q.06 0 .1.04.04.04.04.1v5.9q0 .06-.04.1-.04.04-.1.04h-1.4Zm5.59.1q-1.01 0-1.73-.53t-.98-1.44q-.17-.57-.17-1.23 0-.7.17-1.27.27-.89.99-1.39.72-.5 1.73-.5.98 0 1.68.49.7.5.98 1.39.2.6.2 1.26 0 .65-.17 1.21-.27.94-.98 1.47-.71.54-1.72.54Zm0-1.46q.39 0 .67-.24t.4-.66q.09-.38.09-.84 0-.5-.09-.85-.14-.41-.41-.63-.28-.23-.67-.23-.41 0-.68.23-.27.22-.39.63-.1.29-.1.85 0 .54.09.84.12.42.4.66.28.24.69.24Zm7.17-4.9q.96 0 1.55.58.59.59.59 1.6v3.94q0 .06-.04.1-.04.04-.1.04h-1.41q-.06 0-.1-.04-.04-.04-.04-.1v-3.59q0-.48-.27-.78-.27-.3-.72-.3-.44 0-.71.3-.27.3-.27.78v3.59q0 .06-.04.1-.04.04-.1.04h-1.41q-.06 0-.1-.04-.04-.04-.04-.1v-5.88q0-.06.04-.11.04-.04.1-.04h1.41q.06 0 .1.04.04.05.04.11v.42q0 .03.02.04.03.02.04-.01.49-.69 1.46-.69ZM17.56 39.74q0-.06.04-.1.04-.04.1-.04h1.4q.06 0 .11.04.04.04.04.1v8.12q0 .06-.04.1-.05.04-.11.04h-1.4q-.06 0-.1-.04-.04-.04-.04-.1v-3.32q0-.06-.06-.06h-2.66q-.06 0-.06.06v3.32q0 .06-.04.1-.04.04-.1.04h-1.4q-.06 0-.11-.04-.04-.04-.04-.1v-8.12q0-.06.04-.1.05-.04.11-.04h1.4q.06 0 .1.04.04.04.04.1v3.23q0 .06.06.06h2.66q.06 0 .06-.06v-3.23Zm3.87 1.4q-.41 0-.68-.27-.27-.27-.27-.68 0-.42.27-.69.26-.26.68-.26.42 0 .69.26.26.27.26.69 0 .41-.27.68-.27.27-.68.27ZM20.71 48q-.06 0-.1-.04-.04-.04-.04-.1v-5.9q0-.06.04-.1.04-.04.1-.04h1.41q.06 0 .1.04.04.04.04.1v5.9q0 .06-.04.1-.04.04-.1.04h-1.41Zm6.64-6.02q0-.06.04-.11.04-.04.1-.04h1.41q.06 0 .1.04.04.05.04.11v5.47q0 1.57-.91 2.24-.9.67-2.33.67-.42 0-.94-.06-.12-.01-.12-.15l.05-1.24q0-.15.17-.13.43.07.79.07.77 0 1.18-.33.42-.34.42-1.08 0-.04-.03-.05-.02 0-.04.02-.46.49-1.34.49-.78 0-1.43-.37-.65-.38-.93-1.22-.18-.55-.18-1.43 0-.94.22-1.52.25-.74.85-1.18.6-.44 1.39-.44.92 0 1.42.55.02.02.04.02.03-.01.03-.05v-.28Zm-.1 3.87q.1-.36.1-.98 0-.37-.03-.58-.02-.2-.08-.38-.11-.33-.36-.52-.25-.2-.62-.2-.36 0-.62.2-.25.19-.37.52-.17.36-.17.97 0 .67.15.96.11.32.38.52t.64.2q.38 0 .63-.2.26-.2.35-.51Zm6.22-4.11q.96 0 1.55.58.58.59.58 1.6v3.94q0 .06-.04.1-.04.04-.1.04h-1.4q-.06 0-.11-.04-.04-.04-.04-.1v-3.59q0-.48-.27-.78-.27-.3-.71-.3-.45 0-.72.3-.27.3-.27.78v3.59q0 .06-.04.1-.04.04-.1.04h-1.4q-.06 0-.11-.04-.04-.04-.04-.1v-8.12q0-.06.04-.1.05-.04.11-.04h1.4q.06 0 .1.04.04.04.04.1v2.66q0 .03.03.04.02.02.03-.01.5-.69 1.47-.69Zm8.77 2.54q.07.46.05 1.02-.01.14-.16.14h-3.71q-.07 0-.04.06.03.24.13.48.31.68 1.27.68.77-.02 1.21-.63.05-.07.11-.07.04 0 .08.05l.87.85q.06.06.06.11 0 .02-.05.09-.4.5-1.02.77t-1.37.27q-1.03 0-1.74-.47-.72-.47-1.03-1.31-.25-.6-.25-1.57 0-.66.18-1.17.27-.85.96-1.35.69-.51 1.64-.51 1.2 0 1.93.7.72.7.88 1.86Zm-2.8-1.09q-.75 0-.99.71-.05.15-.09.38 0 .06.06.06h2.08q.07 0 .05-.06-.06-.35-.06-.34-.11-.36-.38-.55-.27-.2-.67-.2Zm6.27 4.89q-.81 0-1.41-.22-.6-.23-.93-.64-.33-.41-.33-.92v-.12q0-.06.05-.11.04-.04.1-.04h1.33q.06 0 .1.04.04.05.04.11v.01q0 .26.3.45.29.18.74.18.4 0 .66-.16.25-.16.25-.4 0-.22-.22-.32-.21-.11-.71-.23-.56-.15-.88-.28-.77-.26-1.23-.65-.45-.38-.45-1.1 0-.89.69-1.41.69-.52 1.83-.52.76 0 1.34.24.58.25.89.69.32.45.32 1.01 0 .06-.04.1-.04.05-.1.05h-1.29q-.06 0-.1-.05-.04-.04-.04-.1 0-.26-.27-.44t-.71-.18q-.4 0-.65.14-.25.15-.25.4 0 .24.24.36.25.12.82.25.14.04.3.08.17.04.36.1.86.25 1.35.65.49.39.49 1.15 0 .89-.7 1.39-.7.49-1.89.49Zm7.09-5.04q0 .06-.04.11-.04.04-.1.04H51.5q-.06 0-.06.06v2.54q0 .4.17.59.16.19.52.19h.39q.06 0 .11.04.04.05.04.11v1.14q0 .13-.15.15-.5.03-.72.03-.99 0-1.48-.33-.5-.33-.51-1.25v-3.21q0-.06-.06-.06h-.68q-.06 0-.1-.04-.05-.05-.05-.11v-1.06q0-.06.05-.11.04-.04.1-.04h.68q.06 0 .06-.06v-1.43q0-.06.04-.1.05-.04.11-.04h1.34q.06 0 .1.04.04.04.04.1v1.43q0 .06.06.06h1.16q.06 0 .1.04.04.05.04.11v1.06Zm6.58 5.06q-.93 0-1.63-.36-.7-.36-1.09-1.02-.39-.65-.39-1.5v-5.48q0-.06.04-.1.04-.04.1-.04h1.41q.06 0 .1.04.04.04.04.1v5.49q0 .63.39 1.02t1.03.39q.63 0 1.02-.39t.39-1.02v-5.49q0-.06.04-.1.05-.04.11-.04h1.4q.06 0 .1.04.04.04.04.1v5.48q0 .85-.39 1.5-.39.66-1.09 1.02-.7.36-1.62.36Zm6.85-.02q-.81 0-1.41-.22-.6-.23-.93-.64-.33-.41-.33-.92v-.12q0-.06.05-.11.04-.04.1-.04h1.33q.06 0 .1.04.04.05.04.11v.01q0 .26.3.45.29.18.74.18.4 0 .66-.16.25-.16.25-.4 0-.22-.22-.32-.21-.11-.71-.23-.56-.15-.88-.28-.77-.26-1.23-.65-.45-.38-.45-1.1 0-.89.69-1.41.69-.52 1.83-.52.76 0 1.34.24.58.25.89.69.32.45.32 1.01 0 .06-.04.1-.04.05-.1.05h-1.29q-.06 0-.1-.05-.04-.04-.04-.1 0-.26-.27-.44t-.71-.18q-.4 0-.65.14-.25.15-.25.4 0 .24.24.36.25.12.82.25.14.04.3.08.17.04.36.1.86.25 1.35.65.49.39.49 1.15 0 .89-.7 1.39-.7.49-1.89.49Zm9.02-3.8q.07.46.05 1.02-.01.14-.16.14h-3.7q-.08 0-.05.06.03.24.13.48.31.68 1.27.68.77-.02 1.21-.63.05-.07.11-.07.04 0 .09.05l.86.85q.06.06.06.11 0 .02-.05.09-.39.5-1.02.77-.62.27-1.37.27-1.03 0-1.74-.47-.72-.47-1.03-1.31-.25-.6-.25-1.57 0-.66.18-1.17.28-.85.97-1.35.69-.51 1.63-.51 1.2 0 1.93.7t.88 1.86Zm-2.79-1.09q-.76 0-1 .71-.05.15-.08.38 0 .06.06.06h2.07q.07 0 .05-.06-.06-.35-.06-.34-.11-.36-.38-.55-.27-.2-.66-.2Zm6.96-1.44q.43 0 .68.17.1.04.07.18l-.25 1.36q-.01.15-.17.09-.18-.06-.42-.06-.09 0-.26.02-.43.04-.73.32t-.3.75v3.28q0 .06-.05.1-.04.04-.1.04h-1.4q-.06 0-.1-.04-.05-.04-.05-.1v-5.88q0-.06.05-.11.04-.04.1-.04h1.4q.06 0 .1.04.05.05.05.11v.45q0 .04.02.05.02.01.04-.01.49-.72 1.32-.72Z"/><path fill="#fff" d="M16.9 75.48q-.78 0-1.36-.25-.58-.25-.9-.7-.31-.45-.31-1.06v-.25q0-.05.04-.09.03-.03.08-.03h.89q.05 0 .09.03.03.04.03.09v.19q0 .46.41.76.41.31 1.12.31.61 0 .92-.26.31-.26.31-.67 0-.28-.17-.48-.17-.19-.48-.35-.32-.16-.95-.4-.71-.26-1.15-.49-.44-.23-.73-.63-.3-.39-.3-.98 0-.88.64-1.39.64-.51 1.71-.51.75 0 1.33.26.57.26.89.73.32.46.32 1.07v.17q0 .05-.04.09-.03.03-.08.03h-.9q-.05 0-.08-.03-.04-.04-.04-.09v-.11q0-.47-.38-.79-.39-.33-1.07-.33-.55 0-.85.23-.31.23-.31.65 0 .3.16.49t.48.34q.32.16.99.4.71.27 1.14.49.42.22.73.61.3.4.3.99 0 .9-.67 1.43-.66.53-1.81.53Zm9.01-5.27q.77 0 1.21.46.43.47.43 1.3v3.31q0 .05-.03.08-.04.04-.09.04h-.91q-.05 0-.08-.04-.04-.03-.04-.08v-3.07q0-.46-.24-.73-.25-.27-.66-.27-.41 0-.67.27-.26.27-.26.72v3.08q0 .05-.03.08-.04.04-.09.04h-.91q-.05 0-.09-.04-.03-.03-.03-.08v-3.07q0-.46-.25-.73-.25-.27-.66-.27-.38 0-.63.22-.24.22-.28.6v3.25q0 .05-.03.08-.04.04-.09.04h-.92q-.05 0-.08-.04-.04-.03-.04-.08v-4.87q0-.05.04-.09.03-.03.08-.03h.92q.05 0 .09.03.03.04.03.09v.33q0 .03.02.04.02.01.04-.02.22-.28.54-.41.33-.14.73-.14.49 0 .86.2t.57.58q.03.04.07 0 .22-.4.61-.59.39-.19.87-.19Zm4.77 0q.63 0 1.11.22.48.22.74.6.26.39.26.88v3.37q0 .05-.03.08-.04.04-.09.04h-.92q-.05 0-.08-.04-.04-.03-.04-.08v-.32q0-.03-.02-.04-.02 0-.04.02-.49.54-1.42.54-.75 0-1.23-.38-.49-.38-.49-1.13 0-.78.55-1.22.54-.43 1.53-.43h1.07q.05 0 .05-.05v-.24q0-.39-.23-.61-.23-.21-.69-.21-.38 0-.61.14-.24.13-.3.37-.03.12-.14.1l-.97-.12q-.05-.01-.08-.03-.04-.03-.03-.07.08-.61.66-1 .57-.39 1.44-.39Zm-.24 4.35q.49 0 .84-.26t.35-.66v-.47q0-.05-.05-.05h-.84q-.53 0-.83.2-.31.2-.31.57 0 .32.24.49.23.18.6.18Zm3.63.84q-.05 0-.08-.04-.04-.03-.04-.08v-6.76q0-.05.04-.08.03-.04.08-.04h.92q.05 0 .09.04.03.03.03.08v6.76q0 .05-.03.08-.04.04-.09.04h-.92Zm2.39 0q-.05 0-.08-.04-.04-.03-.04-.08v-6.76q0-.05.04-.08.03-.04.08-.04h.92q.05 0 .09.04.03.03.03.08v6.76q0 .05-.03.08-.04.04-.09.04h-.92Zm8.29-3.65q-.06.03 0 .06 1.02.48 1.02 1.65 0 .95-.63 1.45-.64.49-1.66.49h-2.52q-.05 0-.08-.04-.04-.03-.04-.08v-6.76q0-.05.04-.08.03-.04.08-.04h2.44q1.09 0 1.68.47.59.47.59 1.42 0 1.05-.92 1.46Zm-2.7-2.35q-.05 0-.05.05v1.85q0 .05.05.05h1.35q.53 0 .84-.25.3-.26.3-.71 0-.46-.3-.73-.31-.26-.84-.26h-1.35Zm1.43 4.99q.52 0 .83-.28.3-.28.3-.76 0-.49-.31-.76-.31-.28-.84-.28h-1.41q-.05 0-.05.05v1.98q0 .05.05.05h1.43Zm6.4-3.98q0-.05.03-.09.04-.03.09-.03h.91q.05 0 .09.03.03.04.03.09v4.87q0 .05-.03.08-.04.04-.09.04H50q-.05 0-.09-.04-.03-.03-.03-.08v-.32q0-.03-.02-.04-.02-.01-.04.02-.41.53-1.23.53-.76 0-1.27-.44-.52-.44-.52-1.25v-3.37q0-.05.03-.09.04-.03.09-.03h.92q.05 0 .09.03.03.04.03.09v3.04q0 .47.25.75.24.28.68.28.45 0 .72-.28.27-.28.27-.75v-3.04Zm4.29 5.05q-.63 0-1.11-.19-.47-.18-.73-.51-.26-.32-.26-.72v-.09q0-.05.03-.09.04-.03.09-.03h.88q.05 0 .08.03.04.04.04.09v.02q0 .25.27.44.28.18.7.18.4 0 .65-.16.25-.17.25-.42 0-.23-.21-.35-.2-.11-.66-.24l-.38-.12q-.51-.15-.86-.32t-.59-.47q-.24-.29-.24-.75 0-.7.55-1.11.55-.42 1.45-.42.61 0 1.07.19.46.2.71.54.25.35.25.79 0 .05-.04.09-.03.03-.08.03h-.85q-.05 0-.09-.03-.03-.04-.03-.09 0-.26-.26-.43-.25-.18-.69-.18-.39 0-.64.14-.24.15-.24.41 0 .24.23.36.24.13.79.28l.22.06q.53.16.89.32.36.17.61.46.25.3.25.77 0 .71-.56 1.11-.56.41-1.49.41Zm3.69-5.87q-.31 0-.51-.2t-.2-.51q0-.31.2-.51t.51-.2q.31 0 .51.2t.2.51q0 .31-.2.51t-.51.2Zm-.48 5.81q-.05 0-.09-.04-.03-.03-.03-.08V70.4q0-.05.03-.08.04-.04.09-.04h.92q.05 0 .08.04.04.03.04.08v4.88q0 .05-.04.08-.03.04-.08.04h-.92Zm4.82-5.19q.81 0 1.29.48.49.48.49 1.31v3.28q0 .05-.04.08-.03.04-.08.04h-.92q-.05 0-.09-.04-.03-.03-.03-.08v-3.04q0-.46-.26-.75-.26-.28-.69-.28-.43 0-.7.28-.26.28-.26.74v3.05q0 .05-.04.08-.03.04-.08.04h-.92q-.05 0-.09-.04-.03-.03-.03-.08v-4.87q0-.05.03-.09.04-.03.09-.03h.92q.05 0 .08.03.04.04.04.09v.32q0 .03.02.04.02.01.03-.02.41-.54 1.24-.54Zm7.26 2.06q.04.25.04.56l-.01.31q0 .12-.12.12h-3.13q-.05 0-.05.05.03.33.09.45.24.72 1.17.73.68 0 1.08-.56.04-.06.1-.06.04 0 .07.03l.62.51q.09.07.03.16-.31.44-.83.68-.51.24-1.14.24-.78 0-1.33-.35-.54-.35-.79-.98-.23-.54-.23-1.5 0-.58.12-.94.2-.7.75-1.11.56-.4 1.34-.4 1.97 0 2.22 2.06Zm-2.22-1.06q-.37 0-.62.19-.24.18-.34.51-.06.17-.08.44-.02.05.04.05h2.03q.05 0 .05-.05-.02-.25-.06-.38-.09-.36-.36-.56-.26-.2-.66-.2Zm5.14 4.25q-.63 0-1.11-.19-.47-.18-.73-.51-.26-.32-.26-.72v-.09q0-.05.03-.09.04-.03.09-.03h.88q.05 0 .08.03.04.04.04.09v.02q0 .25.27.44.28.18.7.18.4 0 .65-.16.25-.17.25-.42 0-.23-.21-.35-.2-.11-.66-.24l-.38-.12q-.51-.15-.86-.32t-.59-.47q-.24-.29-.24-.75 0-.7.55-1.11.55-.42 1.45-.42.61 0 1.07.19.46.2.71.54.25.35.25.79 0 .05-.04.09-.03.03-.08.03h-.85q-.05 0-.09-.03-.03-.04-.03-.09 0-.26-.26-.43-.25-.18-.69-.18-.39 0-.64.14-.24.15-.24.41 0 .24.23.36.24.13.79.28l.22.06q.53.16.89.32.36.17.61.46.25.3.25.77 0 .71-.56 1.11-.56.41-1.49.41Zm4.83 0q-.63 0-1.11-.19-.47-.18-.73-.51-.26-.32-.26-.72v-.09q0-.05.03-.09.04-.03.09-.03h.88q.05 0 .08.03.04.04.04.09v.02q0 .25.27.44.28.18.7.18.4 0 .65-.16.25-.17.25-.42 0-.23-.21-.35-.2-.11-.66-.24l-.38-.12q-.51-.15-.86-.32t-.59-.47q-.24-.29-.24-.75 0-.7.55-1.11.55-.42 1.45-.42.61 0 1.07.19.46.2.71.54.25.35.25.79 0 .05-.04.09-.03.03-.08.03h-.85q-.05 0-.09-.03-.03-.04-.03-.09 0-.26-.26-.43-.25-.18-.69-.18-.39 0-.64.14-.24.15-.24.41 0 .24.23.36.24.13.79.28l.22.06q.53.16.89.32.36.17.61.46.25.3.25.77 0 .71-.56 1.11-.56.41-1.49.41Z"/><path fill="#252530" d="M31.16 89.5q-.11 0-.14-.1l-1.77-6.77-.01-.04q0-.09.11-.09h1.24q.1 0 .13.1l.95 4.07q.01.04.03.04.02 0 .03-.04l.92-4.06q.03-.11.13-.11h1.21q.11 0 .14.1l1 4.07q.01.03.03.04.02 0 .03-.04l.92-4.06q.03-.11.13-.11h1.18q.14 0 .11.13l-1.64 6.77q-.03.1-.14.1h-1.19q-.1 0-.13-.1l-1.02-4.33q-.01-.04-.03-.04-.02 0-.03.04l-.95 4.32q-.02.11-.13.11h-1.11Zm7.34 0q-.05 0-.09-.04-.03-.03-.03-.08v-6.76q0-.05.03-.08.04-.04.09-.04h1.17q.05 0 .08.04.04.03.04.08v6.76q0 .05-.04.08-.03.04-.08.04H38.5Zm6.53-6.88q0-.05.03-.08.04-.04.09-.04h1.17q.05 0 .08.04.04.03.04.08v6.76q0 .05-.04.08-.03.04-.08.04h-1.13q-.1 0-.14-.08l-2.59-4.28q-.02-.03-.04-.02-.02 0-.02.04l.02 4.22q0 .05-.04.08-.03.04-.08.04h-1.17q-.05 0-.09-.04-.03-.03-.03-.08v-6.76q0-.05.03-.08.04-.04.09-.04h1.13q.1 0 .14.08l2.58 4.26q.02.03.04.02.02 0 .02-.04l-.01-4.2Zm7.46-.12q.05 0 .08.04.04.03.04.08v.98q0 .05-.04.08-.03.04-.08.04H50.7q-.05 0-.05.05v5.61q0 .05-.04.08-.03.04-.08.04h-1.17q-.05 0-.09-.04-.03-.03-.03-.08v-5.61q0-.05-.05-.05h-1.74q-.05 0-.09-.04-.03-.03-.03-.08v-.98q0-.05.03-.08.04-.04.09-.04h5.04Zm5.88 1.09q0 .05-.03.08-.04.04-.09.04h-3.28q-.05 0-.05.05v1.55q0 .05.05.05h2.15q.05 0 .08.03.04.04.04.09v.97q0 .05-.04.09-.03.03-.08.03h-2.15q-.05 0-.05.05v1.62q0 .05.05.05h3.28q.05 0 .09.03.03.04.03.09v.97q0 .05-.03.08-.04.04-.09.04h-4.62q-.05 0-.09-.04-.03-.03-.03-.08v-6.76q0-.05.03-.08.04-.04.09-.04h4.62q.05 0 .09.04.03.03.03.08v.97Zm4.82 5.91q-.1 0-.14-.09l-1.25-2.77q-.02-.04-.06-.04h-.93q-.05 0-.05.05v2.73q0 .05-.04.08-.03.04-.08.04h-1.17q-.05 0-.09-.04-.03-.03-.03-.08v-6.76q0-.05.03-.08.04-.04.09-.04h2.86q.64 0 1.12.26.49.26.75.74.27.48.27 1.11 0 .68-.34 1.16-.34.49-.95.69-.05.02-.03.07l1.36 2.83q.02.04.02.06 0 .08-.11.08h-1.23Zm-2.38-5.79q-.05 0-.05.05v1.71q0 .05.05.05h1.31q.42 0 .68-.25.27-.25.27-.65t-.27-.66q-.26-.25-.68-.25h-1.31ZM38.06 97.63q-.02.02-.01.04t.04.02h2.71q.05 0 .09.03.03.04.03.09v.97q0 .05-.03.08-.04.04-.09.04h-4.5q-.05 0-.09-.04-.03-.03-.03-.08v-.92q0-.09.06-.15.49-.48 1-1.04.51-.57.64-.71.28-.33.57-.63.91-1.01.91-1.5 0-.35-.25-.58-.25-.22-.65-.22t-.65.22q-.25.23-.25.6v.25q0 .05-.04.09-.03.03-.08.03h-1.18q-.05 0-.08-.03-.04-.04-.04-.09v-.47q.03-.54.34-.96.31-.41.82-.63.52-.22 1.16-.22.71 0 1.24.26.52.27.81.72.28.45.28 1 0 .42-.21.86t-.63.95q-.31.39-.67.77-.36.38-1.07 1.1l-.15.15Zm6.11 1.38q-1.1 0-1.74-.62-.64-.61-.64-1.67v-2.64q0-1.04.64-1.65.64-.61 1.74-.61t1.75.61q.64.61.64 1.65v2.64q0 1.06-.64 1.67-.65.62-1.75.62Zm0-1.21q.45 0 .72-.28.26-.27.26-.73v-2.75q0-.46-.26-.73-.27-.28-.72-.28-.44 0-.7.28-.27.27-.27.73v2.75q0 .46.27.73.26.28.7.28Zm5.19-.17q-.02.02-.01.04t.04.02h2.71q.05 0 .09.03.03.04.03.09v.97q0 .05-.03.08-.04.04-.09.04h-4.5q-.05 0-.08-.04-.04-.03-.04-.08v-.92q0-.09.06-.15.49-.48 1-1.04.51-.57.64-.71.28-.33.57-.63.91-1.01.91-1.5 0-.35-.25-.58-.25-.22-.65-.22t-.65.22q-.25.23-.25.6v.25q0 .05-.03.09-.04.03-.09.03h-1.18q-.05 0-.08-.03-.04-.04-.04-.09v-.47q.03-.54.34-.96.31-.41.83-.63.51-.22 1.15-.22.71 0 1.24.26.52.27.81.72.28.45.28 1 0 .42-.21.86t-.63.95q-.31.39-.67.77-.36.38-1.07 1.1l-.15.15Zm7.9-2.07q.2.46.2 1.06 0 .54-.18 1-.24.64-.8 1-.57.36-1.34.36-.76 0-1.33-.38-.58-.38-.83-1.03-.14-.39-.16-.84 0-.12.12-.12h1.18q.12 0 .12.12.04.33.11.49.09.26.3.4.2.15.48.15.56 0 .77-.49.14-.3.14-.7 0-.47-.15-.77-.23-.47-.77-.47-.11 0-.23.06-.12.07-.29.19-.04.03-.08.03-.06 0-.09-.06l-.59-.83q-.02-.03-.02-.07 0-.06.04-.1l1.59-1.39q.02-.02.02-.04-.01-.02-.04-.02h-2.35q-.05 0-.08-.04-.04-.03-.04-.08v-.97q0-.05.04-.08.03-.04.08-.04h4.17q.05 0 .09.04.03.03.03.08v1.1q0 .08-.07.15l-1.31 1.2q-.02.02-.01.04 0 .02.04.02.87.17 1.24 1.03Z"/></svg>